<svg width="1131" height="366" viewBox="0 0 1131 366" fill="none" xmlns="http://www.w3.org/2000/svg">
<path d="M49.6875 483.873C34.7656 483.873 22.7344 479.225 13.5938 469.928C4.53125 460.631 0 447.623 0 430.904V62.7481C0 42.7481 3.94531 27.4356 11.8359 16.8106C19.8047 6.18561 32.7344 0.873108 50.625 0.873108C60.3906 0.873108 69.0625 2.66998 76.6406 6.26373C84.2969 9.85748 90.3125 15.2481 94.6875 22.4356C99.0625 29.545 101.25 38.5294 101.25 49.3887V85.0137H60.2344V54.545C60.2344 48.3731 59.4531 44.2325 57.8906 42.1231C56.3281 39.9356 53.9062 38.8419 50.625 38.8419C46.7969 38.8419 44.2188 40.2481 42.8906 43.0606C41.5625 45.795 40.8984 49.4669 40.8984 54.0762V430.318C40.8984 436.022 41.7188 440.045 43.3594 442.389C45.0781 444.732 47.5 445.904 50.625 445.904C54.1406 445.904 56.6016 444.459 58.0078 441.568C59.4922 438.678 60.2344 434.928 60.2344 430.318V120.17H101.719V432.193C101.719 450.318 97.1484 463.482 88.0078 471.686C78.8672 479.811 66.0938 483.873 49.6875 483.873Z" fill="#EAE9B6"/>
<path d="M109.922 481.998L129.844 2.74811H199.805L219.375 481.998H180.352L177.422 448.717H152.578L150 481.998H109.922ZM155.508 241.787H174.258L165.234 37.9044H163.359L155.508 241.787Z" fill="#EAE9B6"/>
<path d="M232.031 481.998V2.74811H295.312C305.859 2.74811 313.828 5.16998 319.219 10.0137C324.609 14.7794 328.203 21.4981 330 30.17C331.875 38.7637 332.812 48.8809 332.812 60.5215C332.812 71.7715 331.367 80.7559 328.477 87.4747C325.664 94.1934 320.312 98.8419 312.422 101.42C318.906 102.748 323.438 105.99 326.016 111.147C328.672 116.225 330 122.826 330 130.951V481.998H289.336V128.256C289.336 122.24 288.086 118.529 285.586 117.123C283.164 115.639 279.219 114.897 273.75 114.897V481.998H232.031ZM273.984 79.1544H283.945C289.648 79.1544 292.5 72.9434 292.5 60.5215C292.5 52.4747 291.875 47.2012 290.625 44.7012C289.375 42.2012 287.031 40.9512 283.594 40.9512H273.984V79.1544Z" fill="#EAE9B6"/>
<path d="M346.406 481.998V2.74811H409.688C420.234 2.74811 428.203 5.16998 433.594 10.0137C438.984 14.7794 442.578 21.4981 444.375 30.17C446.25 38.7637 447.188 48.8809 447.188 60.5215C447.188 71.7715 445.742 80.7559 442.852 87.4747C440.039 94.1934 434.688 98.8419 426.797 101.42C433.281 102.748 437.812 105.99 440.391 111.147C443.047 116.225 444.375 122.826 444.375 130.951V481.998H403.711V128.256C403.711 122.24 402.461 118.529 399.961 117.123C397.539 115.639 393.594 114.897 388.125 114.897V481.998H346.406ZM388.359 79.1544H398.32C404.023 79.1544 406.875 72.9434 406.875 60.5215C406.875 52.4747 406.25 47.2012 405 44.7012C403.75 42.2012 401.406 40.9512 397.969 40.9512H388.359V79.1544Z" fill="#EAE9B6"/>
<path d="M460.781 481.998V2.74811H543.281V42.5919H502.734V148.787H541.641V187.576H502.734V441.803H545.977V481.998H460.781Z" fill="#EAE9B6"/>
<path d="M602.227 483.873C572.773 483.873 558.047 462.779 558.047 420.592V58.6465C558.047 20.1309 574.922 0.873108 608.672 0.873108C622.578 0.873108 633.242 3.68561 640.664 9.31061C648.086 14.8575 653.203 22.9825 656.016 33.6856C658.828 44.3887 660.234 57.4356 660.234 72.8262H619.922V54.545C619.922 50.0919 619.297 46.3809 618.047 43.4122C616.875 40.3653 614.375 38.8419 610.547 38.8419C605.781 38.8419 602.617 40.4434 601.055 43.6465C599.57 46.8497 598.828 50.3653 598.828 54.1934V427.154C598.828 432.701 599.531 437.232 600.938 440.748C602.422 444.186 605.273 445.904 609.492 445.904C613.867 445.904 616.758 444.186 618.164 440.748C619.648 437.232 620.391 432.623 620.391 426.92V124.506H609.375V88.8809H659.766V481.998H643.242L636.211 464.654C629.023 477.467 617.695 483.873 602.227 483.873Z" fill="#EAE9B6"/>
<path d="M670.547 481.998L690.469 2.74811H760.43L780 481.998H740.977L738.047 448.717H713.203L710.625 481.998H670.547ZM716.133 241.787H734.883L725.859 37.9044H723.984L716.133 241.787Z" fill="#EAE9B6"/>
<path d="M792.656 481.998V2.74811H835.078L854.062 101.537V2.74811H893.906V481.998H853.594L832.969 105.873V481.998H792.656Z" fill="#EAE9B6"/>
<path d="M912.188 481.998V2.74811H968.906C983.75 2.74811 994.922 6.88873 1002.42 15.17C1009.92 23.3731 1013.67 35.4044 1013.67 51.2637V420.826C1013.67 440.357 1010.23 455.436 1003.36 466.061C996.562 476.686 984.609 481.998 967.5 481.998H912.188ZM953.672 445.553H960.82C968.398 445.553 972.188 441.881 972.188 434.537V55.1309C972.188 48.2559 971.25 43.8419 969.375 41.8887C967.578 39.8575 963.867 38.8419 958.242 38.8419H953.672V445.553Z" fill="#EAE9B6"/>
<path d="M1079.77 483.873C1063.28 483.873 1050.66 478.912 1041.91 468.99C1033.24 458.99 1028.91 444.576 1028.91 425.748V54.7794C1028.91 37.1231 1033.2 23.7247 1041.8 14.584C1050.47 5.44342 1063.12 0.873108 1079.77 0.873108C1096.41 0.873108 1109.02 5.44342 1117.62 14.584C1126.29 23.7247 1130.62 37.1231 1130.62 54.7794V425.748C1130.62 444.576 1126.25 458.99 1117.5 468.99C1108.83 478.912 1096.25 483.873 1079.77 483.873ZM1080.12 445.904C1086.37 445.904 1089.49 439.85 1089.49 427.74V54.0762C1089.49 43.92 1086.45 38.8419 1080.35 38.8419C1073.48 38.8419 1070.04 44.0372 1070.04 54.4278V427.975C1070.04 434.381 1070.82 438.99 1072.38 441.803C1073.95 444.537 1076.52 445.904 1080.12 445.904Z" fill="#EAE9B6"/>
</svg>
