<svg width="263" height="85" viewBox="0 0 263 85" fill="none" xmlns="http://www.w3.org/2000/svg">
<path d="M22.08 61.9882C20.2667 61.9882 18.4533 61.6949 16.64 61.1082C14.88 60.5216 13.2533 59.7482 11.76 58.7882C10.32 57.7749 9.09333 56.6816 8.08 55.5082C7.12 54.2816 6.48 53.2149 6.16 51.9882L8.24 50.7082V60.9482H0V1.98823H8.24V28.7882L6.96 28.0682C7.22667 26.8416 7.81333 25.6682 8.72 24.5482C9.62667 23.3749 10.7733 22.3349 12.16 21.4282C13.6 20.4682 15.1467 19.7216 16.8 19.1882C18.4533 18.6016 20.1333 18.3082 21.84 18.3082C25.6267 18.3082 28.9867 19.2416 31.92 21.1082C34.8533 22.9749 37.1733 25.5616 38.88 28.8682C40.5867 32.1216 41.44 35.8549 41.44 40.0682C41.44 44.2816 40.5867 48.0416 38.88 51.3482C37.2267 54.6549 34.9333 57.2682 32 59.1882C29.0667 61.0549 25.76 61.9882 22.08 61.9882ZM20.72 54.4682C23.1733 54.4682 25.36 53.8549 27.28 52.6282C29.2 51.3482 30.72 49.6416 31.84 47.5082C32.96 45.3216 33.52 42.8416 33.52 40.0682C33.52 37.3482 32.96 34.9216 31.84 32.7882C30.7733 30.6016 29.28 28.8949 27.36 27.6682C25.44 26.4416 23.2267 25.8282 20.72 25.8282C18.2133 25.8282 16 26.4416 14.08 27.6682C12.16 28.8949 10.64 30.6016 9.52 32.7882C8.4 34.9216 7.84 37.3482 7.84 40.0682C7.84 42.8416 8.4 45.3216 9.52 47.5082C10.64 49.6416 12.16 51.3482 14.08 52.6282C16 53.8549 18.2133 54.4682 20.72 54.4682Z" fill="#EAE9B6"/>
<path d="M66.5506 61.9882C63.084 61.9882 59.9106 61.0282 57.0306 59.1082C54.204 57.1882 51.9373 54.5749 50.2306 51.2682C48.524 47.9616 47.6706 44.2282 47.6706 40.0682C47.6706 35.8549 48.524 32.1216 50.2306 28.8682C51.9906 25.5616 54.3373 22.9749 57.2706 21.1082C60.2573 19.2416 63.5906 18.3082 67.2706 18.3082C69.4573 18.3082 71.4573 18.6282 73.2706 19.2682C75.0839 19.9082 76.6573 20.8149 77.9906 21.9882C79.3773 23.1082 80.4973 24.4149 81.3506 25.9082C82.2573 27.4016 82.8173 29.0016 83.0306 30.7082L81.1906 30.0682V19.1882H89.5106V61.1882H81.1906V51.1882L83.1106 50.6282C82.7906 52.0682 82.124 53.4816 81.1106 54.8682C80.1506 56.2016 78.8973 57.4016 77.3506 58.4682C75.8573 59.5349 74.1773 60.3882 72.3106 61.0282C70.4973 61.6682 68.5773 61.9882 66.5506 61.9882ZM68.7106 54.3882C71.2173 54.3882 73.4306 53.7749 75.3506 52.5482C77.2706 51.3216 78.764 49.6416 79.8306 47.5082C80.9506 45.3216 81.5106 42.8416 81.5106 40.0682C81.5106 37.3482 80.9506 34.9216 79.8306 32.7882C78.764 30.6549 77.2706 28.9749 75.3506 27.7482C73.4306 26.5216 71.2173 25.9082 68.7106 25.9082C66.2573 25.9082 64.0706 26.5216 62.1506 27.7482C60.2839 28.9749 58.7906 30.6549 57.6706 32.7882C56.6039 34.9216 56.0706 37.3482 56.0706 40.0682C56.0706 42.8416 56.6039 45.3216 57.6706 47.5082C58.7906 49.6416 60.2839 51.3216 62.1506 52.5482C64.0706 53.7749 66.2573 54.3882 68.7106 54.3882Z" fill="#EAE9B6"/>
<path d="M118.856 61.9882C114.962 61.9882 111.469 61.0282 108.376 59.1082C105.336 57.1882 102.909 54.5749 101.096 51.2682C99.3356 47.9616 98.4556 44.2549 98.4556 40.1482C98.4556 36.0416 99.3356 32.3349 101.096 29.0282C102.909 25.7216 105.336 23.1082 108.376 21.1882C111.469 19.2682 114.962 18.3082 118.856 18.3082C122.589 18.3082 125.976 19.0816 129.016 20.6282C132.109 22.1216 134.456 24.1749 136.056 26.7882L131.496 32.3882C130.642 31.1616 129.549 30.0416 128.216 29.0282C126.882 28.0149 125.469 27.2149 123.976 26.6282C122.482 26.0416 121.042 25.7482 119.656 25.7482C117.096 25.7482 114.802 26.3882 112.776 27.6682C110.802 28.8949 109.229 30.6016 108.056 32.7882C106.882 34.9749 106.296 37.4282 106.296 40.1482C106.296 42.8682 106.909 45.3216 108.136 47.5082C109.362 49.6416 110.989 51.3482 113.016 52.6282C115.042 53.9082 117.282 54.5482 119.736 54.5482C121.176 54.5482 122.562 54.3082 123.896 53.8282C125.282 53.3482 126.616 52.6282 127.896 51.6682C129.176 50.7082 130.376 49.5349 131.496 48.1482L136.056 53.7482C134.349 56.1482 131.896 58.1216 128.696 59.6682C125.549 61.2149 122.269 61.9882 118.856 61.9882Z" fill="#EAE9B6"/>
<path d="M159.988 61.9882C156.521 61.9882 153.348 61.0282 150.468 59.1082C147.641 57.1882 145.375 54.5749 143.668 51.2682C141.961 47.9616 141.108 44.2282 141.108 40.0682C141.108 35.8549 141.961 32.1216 143.668 28.8682C145.428 25.5616 147.775 22.9749 150.708 21.1082C153.695 19.2416 157.028 18.3082 160.708 18.3082C162.895 18.3082 164.895 18.6282 166.708 19.2682C168.521 19.9082 170.095 20.8149 171.428 21.9882C172.815 23.1082 173.935 24.4149 174.788 25.9082C175.695 27.4016 176.255 29.0016 176.468 30.7082L174.628 30.0682V19.1882H182.948V61.1882H174.628V51.1882L176.548 50.6282C176.228 52.0682 175.561 53.4816 174.548 54.8682C173.588 56.2016 172.335 57.4016 170.788 58.4682C169.295 59.5349 167.615 60.3882 165.748 61.0282C163.935 61.6682 162.015 61.9882 159.988 61.9882ZM162.148 54.3882C164.655 54.3882 166.868 53.7749 168.788 52.5482C170.708 51.3216 172.201 49.6416 173.268 47.5082C174.388 45.3216 174.948 42.8416 174.948 40.0682C174.948 37.3482 174.388 34.9216 173.268 32.7882C172.201 30.6549 170.708 28.9749 168.788 27.7482C166.868 26.5216 164.655 25.9082 162.148 25.9082C159.695 25.9082 157.508 26.5216 155.588 27.7482C153.721 28.9749 152.228 30.6549 151.108 32.7882C150.041 34.9216 149.508 37.3482 149.508 40.0682C149.508 42.8416 150.041 45.3216 151.108 47.5082C152.228 49.6416 153.721 51.3216 155.588 52.5482C157.508 53.7749 159.695 54.3882 162.148 54.3882Z" fill="#EAE9B6"/>
<path d="M199.653 61.1882V8.46823H207.893V61.1882H199.653ZM190.933 27.1882V19.1882H217.653V27.1882H190.933Z" fill="#EAE9B6"/>
<path d="M244.366 61.9882C240.046 61.9882 236.206 61.0816 232.846 59.2682C229.539 57.4016 226.926 54.8682 225.006 51.6682C223.139 48.4682 222.206 44.7882 222.206 40.6282C222.206 37.3216 222.739 34.3082 223.806 31.5882C224.872 28.8682 226.339 26.5216 228.206 24.5482C230.126 22.5216 232.392 20.9749 235.006 19.9082C237.672 18.7882 240.552 18.2282 243.646 18.2282C246.366 18.2282 248.899 18.7616 251.246 19.8282C253.592 20.8416 255.619 22.2549 257.326 24.0682C259.086 25.8816 260.419 28.0416 261.326 30.5482C262.286 33.0016 262.739 35.6949 262.686 38.6282L262.606 42.1482H228.286L226.446 35.5882H255.486L254.286 36.9482V35.0282C254.126 33.2682 253.539 31.6949 252.526 30.3082C251.512 28.9216 250.232 27.8282 248.686 27.0282C247.139 26.2282 245.459 25.8282 243.646 25.8282C240.766 25.8282 238.339 26.3882 236.366 27.5082C234.392 28.5749 232.899 30.1749 231.886 32.3082C230.872 34.3882 230.366 36.9749 230.366 40.0682C230.366 43.0016 230.979 45.5616 232.206 47.7482C233.432 49.8816 235.166 51.5349 237.406 52.7082C239.646 53.8816 242.232 54.4682 245.166 54.4682C247.246 54.4682 249.166 54.1216 250.926 53.4282C252.739 52.7349 254.686 51.4816 256.766 49.6682L260.926 55.5082C259.646 56.7882 258.072 57.9082 256.206 58.8682C254.392 59.8282 252.446 60.6016 250.366 61.1882C248.339 61.7216 246.339 61.9882 244.366 61.9882Z" fill="#EAE9B6"/>
<path d="M208.845 8.30394C207.621 9.97759 206.879 8.26194 205.274 7.08867C203.669 5.9154 201.809 5.72881 203.032 4.05516C204.255 2.3815 207.434 0.763692 209.039 1.93696C210.644 3.11023 210.068 6.63028 208.845 8.30394Z" fill="#EAE9B6"/>
<path d="M211.478 0L211.347 0.140475C210.699 0.833525 210.285 1.71324 210.168 2.64538L209.805 5.51882L205.274 2.20722L207.902 0.989587C208.774 0.585565 209.691 0.300768 210.629 0.142941L211.478 0Z" fill="#EAE9B6"/>
<path d="M199.913 11.5039C201.136 13.1776 201.879 11.4619 203.484 10.2887C205.089 9.1154 206.949 8.92881 205.726 7.25516C204.502 5.5815 201.323 3.96369 199.718 5.13696C198.113 6.31023 198.69 9.83028 199.913 11.5039Z" fill="#EAE9B6"/>
<path d="M197.28 3.2L197.411 3.34047C198.058 4.03352 198.473 4.91324 198.59 5.84539L198.953 8.71882L203.483 5.40722L200.855 4.18959C199.983 3.78557 199.066 3.50077 198.129 3.34294L197.28 3.2Z" fill="#EAE9B6"/>
<path d="M207.28 13.3734C206.056 15.047 207.679 13.8619 206.074 12.6887C204.469 11.5154 202.609 11.3288 203.832 9.65516C205.055 7.9815 208.234 6.36369 209.839 7.53696C212.24 6.18823 208.503 11.6997 207.28 13.3734Z" fill="#EAE9B6"/>
<path d="M212.278 5.6L212.147 5.74047C210.91 7.06389 210.207 8.89891 208.833 10.0791L208.24 10.5882L206.074 7.80722L208.702 6.58959C209.574 6.18557 210.491 5.90077 211.429 5.74294L212.278 5.6Z" fill="#EAE9B6"/>
<path d="M203.115 13.0954C203.786 15.057 202.588 13.4433 204.47 12.8C206.351 12.1566 208.183 12.5311 207.512 10.5696C206.841 8.60801 204.286 6.1187 202.405 6.76204C200.513 4.76093 202.444 11.1339 203.115 13.0954Z" fill="#EAE9B6"/>
<path d="M200.652 1.18791L200.735 1.36105C201.523 2.99211 201.649 4.95332 202.611 6.48842L203.025 7.15073L205.919 5.13876L203.772 3.19531C203.06 2.55046 202.268 2.00599 201.42 1.57671L200.652 1.18791Z" fill="#EAE9B6"/>
<path d="M0.640039 55.5882H23.04V61.9882H0V58.7882L0.640039 55.5882Z" fill="#EAE9B6"/>
<path d="M66.24 55.5882L80.24 54.3882L89.5106 55.5882V61.9882H66.24V55.5882Z" fill="#EAE9B6"/>
<path d="M159.84 55.5882L174.628 54.3882L182.948 55.5882V61.9882H159.84V55.5882Z" fill="#EAE9B6"/>
<path d="M107.075 84.1132C105.908 84.1132 104.867 83.8716 103.95 83.3882C103.033 82.8882 102.308 82.1632 101.775 81.2132C101.242 80.2632 100.975 79.1049 100.975 77.7382V71.4382C100.975 71.1216 101.083 70.8549 101.3 70.6382C101.533 70.4049 101.808 70.2882 102.125 70.2882C102.458 70.2882 102.733 70.4049 102.95 70.6382C103.183 70.8549 103.3 71.1216 103.3 71.4382V77.7382C103.3 78.7049 103.483 79.5049 103.85 80.1382C104.217 80.7716 104.708 81.2466 105.325 81.5632C105.958 81.8632 106.667 82.0132 107.45 82.0132C108.217 82.0132 108.892 81.8632 109.475 81.5632C110.075 81.2632 110.55 80.8632 110.9 80.3632C111.267 79.8466 111.45 79.2716 111.45 78.6382H112.95C112.917 79.6716 112.642 80.6049 112.125 81.4382C111.625 82.2716 110.933 82.9299 110.05 83.4132C109.167 83.8799 108.175 84.1132 107.075 84.1132ZM112.6 83.9882C112.267 83.9882 111.992 83.8799 111.775 83.6632C111.558 83.4466 111.45 83.1716 111.45 82.8382V71.4382C111.45 71.1049 111.558 70.8299 111.775 70.6132C111.992 70.3966 112.267 70.2882 112.6 70.2882C112.933 70.2882 113.208 70.3966 113.425 70.6132C113.642 70.8299 113.75 71.1049 113.75 71.4382V82.8382C113.75 83.1716 113.642 83.4466 113.425 83.6632C113.208 83.8799 112.933 83.9882 112.6 83.9882Z" fill="#EAE9B6"/>
<path d="M136.392 84.0132C136.059 84.0132 135.784 83.9049 135.567 83.6882C135.351 83.4716 135.242 83.1966 135.242 82.8632V75.6882C135.242 74.5882 134.959 73.7466 134.392 73.1632C133.842 72.5799 133.126 72.2882 132.242 72.2882C131.309 72.2882 130.542 72.6132 129.942 73.2632C129.359 73.8966 129.067 74.7216 129.067 75.7382H127.117C127.134 74.6382 127.376 73.6716 127.842 72.8382C128.309 72.0049 128.959 71.3549 129.792 70.8882C130.626 70.4216 131.567 70.1882 132.617 70.1882C133.584 70.1882 134.434 70.4049 135.167 70.8382C135.917 71.2716 136.501 71.9049 136.917 72.7382C137.334 73.5549 137.542 74.5382 137.542 75.6882V82.8632C137.542 83.1966 137.434 83.4716 137.217 83.6882C137.017 83.9049 136.742 84.0132 136.392 84.0132ZM119.392 84.0132C119.059 84.0132 118.784 83.9049 118.567 83.6882C118.351 83.4716 118.242 83.1966 118.242 82.8632V71.4882C118.242 71.1382 118.351 70.8632 118.567 70.6632C118.784 70.4466 119.059 70.3382 119.392 70.3382C119.742 70.3382 120.017 70.4466 120.217 70.6632C120.434 70.8632 120.542 71.1382 120.542 71.4882V82.8632C120.542 83.1966 120.434 83.4716 120.217 83.6882C120.017 83.9049 119.742 84.0132 119.392 84.0132ZM127.917 84.0132C127.584 84.0132 127.309 83.9049 127.092 83.6882C126.876 83.4716 126.767 83.1966 126.767 82.8632V75.6882C126.767 74.5882 126.484 73.7466 125.917 73.1632C125.367 72.5799 124.651 72.2882 123.767 72.2882C122.834 72.2882 122.059 72.6049 121.442 73.2382C120.842 73.8716 120.542 74.6799 120.542 75.6632H119.042C119.059 74.5966 119.284 73.6549 119.717 72.8382C120.167 72.0049 120.776 71.3549 121.542 70.8882C122.309 70.4216 123.176 70.1882 124.142 70.1882C125.109 70.1882 125.959 70.4049 126.692 70.8382C127.442 71.2716 128.026 71.9049 128.442 72.7382C128.859 73.5549 129.067 74.5382 129.067 75.6882V82.8632C129.067 83.1966 128.959 83.4716 128.742 83.6882C128.542 83.9049 128.267 84.0132 127.917 84.0132Z" fill="#EAE9B6"/>
<path d="M147.602 84.0882C146.352 84.0882 145.236 83.7882 144.252 83.1882C143.269 82.5882 142.494 81.7632 141.927 80.7132C141.361 79.6632 141.077 78.4799 141.077 77.1632C141.077 75.8299 141.377 74.6466 141.977 73.6132C142.594 72.5632 143.419 71.7382 144.452 71.1382C145.502 70.5216 146.677 70.2132 147.977 70.2132C149.294 70.2132 150.469 70.5216 151.502 71.1382C152.536 71.7382 153.352 72.5632 153.952 73.6132C154.569 74.6632 154.886 75.8466 154.902 77.1632L154.002 77.3882C154.002 78.6549 153.719 79.7966 153.152 80.8132C152.586 81.8299 151.819 82.6299 150.852 83.2132C149.902 83.7966 148.819 84.0882 147.602 84.0882ZM147.977 82.0382C148.877 82.0382 149.677 81.8299 150.377 81.4132C151.077 80.9799 151.627 80.3966 152.027 79.6632C152.444 78.9132 152.652 78.0799 152.652 77.1632C152.652 76.2299 152.444 75.3966 152.027 74.6632C151.627 73.9132 151.077 73.3299 150.377 72.9132C149.677 72.4799 148.877 72.2632 147.977 72.2632C147.111 72.2632 146.319 72.4799 145.602 72.9132C144.886 73.3299 144.319 73.9132 143.902 74.6632C143.502 75.3966 143.302 76.2299 143.302 77.1632C143.302 78.0799 143.502 78.9132 143.902 79.6632C144.319 80.3966 144.886 80.9799 145.602 81.4132C146.319 81.8299 147.111 82.0382 147.977 82.0382ZM153.727 84.0132C153.394 84.0132 153.119 83.9049 152.902 83.6882C152.686 83.4716 152.577 83.1966 152.577 82.8632V78.8632L153.052 76.4632L154.902 77.1632V82.8632C154.902 83.1966 154.786 83.4716 154.552 83.6882C154.336 83.9049 154.061 84.0132 153.727 84.0132Z" fill="#EAE9B6"/>
<path d="M171.121 83.9882C170.271 83.9882 169.504 83.7799 168.821 83.3632C168.138 82.9299 167.604 82.3549 167.221 81.6382C166.838 80.9049 166.646 80.0716 166.646 79.1382V67.1132C166.646 66.7799 166.746 66.5049 166.946 66.2882C167.163 66.0716 167.438 65.9632 167.771 65.9632C168.104 65.9632 168.379 66.0716 168.596 66.2882C168.813 66.5049 168.921 66.7799 168.921 67.1132V79.1382C168.921 79.8882 169.129 80.5049 169.546 80.9882C169.963 81.4716 170.488 81.7132 171.121 81.7132H171.896C172.179 81.7132 172.413 81.8216 172.596 82.0382C172.796 82.2549 172.896 82.5299 172.896 82.8632C172.896 83.1966 172.771 83.4716 172.521 83.6882C172.288 83.8882 171.979 83.9882 171.596 83.9882H171.121ZM165.296 72.7882C164.996 72.7882 164.746 72.6966 164.546 72.5132C164.346 72.3299 164.246 72.0966 164.246 71.8132C164.246 71.5132 164.346 71.2716 164.546 71.0882C164.746 70.9049 164.996 70.8132 165.296 70.8132H171.321C171.621 70.8132 171.871 70.9049 172.071 71.0882C172.271 71.2716 172.371 71.5132 172.371 71.8132C172.371 72.0966 172.271 72.3299 172.071 72.5132C171.871 72.6966 171.621 72.7882 171.321 72.7882H165.296Z" fill="#EAE9B6"/>
<path d="M182.23 84.0882C180.897 84.0882 179.705 83.7966 178.655 83.2132C177.622 82.6132 176.805 81.7966 176.205 80.7632C175.622 79.7132 175.33 78.5132 175.33 77.1632C175.33 75.7966 175.622 74.5966 176.205 73.5632C176.805 72.5132 177.622 71.6966 178.655 71.1132C179.705 70.5132 180.897 70.2132 182.23 70.2132C183.564 70.2132 184.747 70.5132 185.78 71.1132C186.83 71.6966 187.647 72.5132 188.23 73.5632C188.83 74.5966 189.139 75.7966 189.155 77.1632C189.155 78.5132 188.855 79.7132 188.255 80.7632C187.655 81.7966 186.839 82.6132 185.805 83.2132C184.772 83.7966 183.58 84.0882 182.23 84.0882ZM182.23 82.0382C183.147 82.0382 183.955 81.8299 184.655 81.4132C185.355 80.9966 185.905 80.4216 186.305 79.6882C186.705 78.9549 186.905 78.1132 186.905 77.1632C186.905 76.2132 186.705 75.3716 186.305 74.6382C185.905 73.8882 185.355 73.3049 184.655 72.8882C183.955 72.4716 183.147 72.2632 182.23 72.2632C181.33 72.2632 180.522 72.4716 179.805 72.8882C179.105 73.3049 178.555 73.8882 178.155 74.6382C177.755 75.3716 177.555 76.2132 177.555 77.1632C177.555 78.1132 177.755 78.9549 178.155 79.6882C178.555 80.4216 179.105 80.9966 179.805 81.4132C180.522 81.8299 181.33 82.0382 182.23 82.0382Z" fill="#EAE9B6"/>
<path d="M199.125 84.0882C197.825 84.0882 196.65 83.7882 195.6 83.1882C194.566 82.5716 193.741 81.7382 193.125 80.6882C192.525 79.6382 192.225 78.4549 192.225 77.1382C192.225 75.8216 192.508 74.6466 193.075 73.6132C193.641 72.5632 194.416 71.7382 195.4 71.1382C196.383 70.5216 197.5 70.2132 198.75 70.2132C199.783 70.2132 200.725 70.4299 201.575 70.8632C202.441 71.2966 203.158 71.8799 203.725 72.6132V65.6132C203.725 65.2632 203.833 64.9882 204.05 64.7882C204.266 64.5716 204.541 64.4632 204.875 64.4632C205.225 64.4632 205.508 64.5716 205.725 64.7882C205.941 64.9882 206.05 65.2632 206.05 65.6132V77.1882C206.033 78.4882 205.716 79.6632 205.1 80.7132C204.5 81.7632 203.675 82.5882 202.625 83.1882C201.591 83.7882 200.425 84.0882 199.125 84.0882ZM199.125 82.0382C200.025 82.0382 200.825 81.8299 201.525 81.4132C202.225 80.9799 202.775 80.3966 203.175 79.6632C203.591 78.9132 203.8 78.0716 203.8 77.1382C203.8 76.2049 203.591 75.3716 203.175 74.6382C202.775 73.9049 202.225 73.3299 201.525 72.9132C200.825 72.4799 200.025 72.2632 199.125 72.2632C198.258 72.2632 197.466 72.4799 196.75 72.9132C196.033 73.3299 195.466 73.9049 195.05 74.6382C194.65 75.3716 194.45 76.2049 194.45 77.1382C194.45 78.0716 194.65 78.9132 195.05 79.6632C195.466 80.3966 196.033 80.9799 196.75 81.4132C197.466 81.8299 198.258 82.0382 199.125 82.0382Z" fill="#EAE9B6"/>
<path d="M216.752 84.0882C215.418 84.0882 214.227 83.7966 213.177 83.2132C212.143 82.6132 211.327 81.7966 210.727 80.7632C210.143 79.7132 209.852 78.5132 209.852 77.1632C209.852 75.7966 210.143 74.5966 210.727 73.5632C211.327 72.5132 212.143 71.6966 213.177 71.1132C214.227 70.5132 215.418 70.2132 216.752 70.2132C218.085 70.2132 219.268 70.5132 220.302 71.1132C221.352 71.6966 222.168 72.5132 222.752 73.5632C223.352 74.5966 223.66 75.7966 223.677 77.1632C223.677 78.5132 223.377 79.7132 222.777 80.7632C222.177 81.7966 221.36 82.6132 220.327 83.2132C219.293 83.7966 218.102 84.0882 216.752 84.0882ZM216.752 82.0382C217.668 82.0382 218.477 81.8299 219.177 81.4132C219.877 80.9966 220.427 80.4216 220.827 79.6882C221.227 78.9549 221.427 78.1132 221.427 77.1632C221.427 76.2132 221.227 75.3716 220.827 74.6382C220.427 73.8882 219.877 73.3049 219.177 72.8882C218.477 72.4716 217.668 72.2632 216.752 72.2632C215.852 72.2632 215.043 72.4716 214.327 72.8882C213.627 73.3049 213.077 73.8882 212.677 74.6382C212.277 75.3716 212.077 76.2132 212.077 77.1632C212.077 78.1132 212.277 78.9549 212.677 79.6882C213.077 80.4216 213.627 80.9966 214.327 81.4132C215.043 81.8299 215.852 82.0382 216.752 82.0382Z" fill="#EAE9B6"/>
<path d="M230.571 83.9882C229.871 83.9882 229.246 83.7966 228.696 83.4132C228.146 83.0299 227.713 82.5049 227.396 81.8382C227.096 81.1549 226.946 80.3716 226.946 79.4882V65.5882C226.946 65.2549 227.046 64.9882 227.246 64.7882C227.463 64.5716 227.738 64.4632 228.071 64.4632C228.421 64.4632 228.696 64.5716 228.896 64.7882C229.113 64.9882 229.221 65.2549 229.221 65.5882V79.4882C229.221 80.1382 229.346 80.6716 229.596 81.0882C229.863 81.5049 230.188 81.7132 230.571 81.7132H231.196C231.513 81.7132 231.763 81.8216 231.946 82.0382C232.13 82.2382 232.221 82.5132 232.221 82.8632C232.221 83.1966 232.08 83.4716 231.796 83.6882C231.53 83.8882 231.18 83.9882 230.746 83.9882H230.571Z" fill="#EAE9B6"/>
<path d="M236.246 83.9882C235.896 83.9882 235.612 83.8799 235.396 83.6632C235.179 83.4466 235.071 83.1716 235.071 82.8382V71.4632C235.071 71.1132 235.179 70.8382 235.396 70.6382C235.612 70.4216 235.896 70.3132 236.246 70.3132C236.579 70.3132 236.854 70.4216 237.071 70.6382C237.287 70.8382 237.396 71.1132 237.396 71.4632V82.8382C237.396 83.1716 237.287 83.4466 237.071 83.6632C236.854 83.8799 236.579 83.9882 236.246 83.9882ZM236.221 67.9382C235.804 67.9382 235.446 67.7882 235.146 67.4882C234.846 67.1882 234.696 66.8216 234.696 66.3882C234.696 65.9549 234.846 65.5966 235.146 65.3132C235.462 65.0132 235.829 64.8632 236.246 64.8632C236.646 64.8632 236.996 65.0132 237.296 65.3132C237.612 65.5966 237.771 65.9549 237.771 66.3882C237.771 66.8216 237.621 67.1882 237.321 67.4882C237.021 67.7882 236.654 67.9382 236.221 67.9382Z" fill="#EAE9B6"/>
<path d="M247.092 84.0882C245.992 84.0882 244.951 83.9216 243.967 83.5882C242.984 83.2382 242.209 82.7632 241.642 82.1632C241.426 81.9132 241.334 81.6382 241.367 81.3382C241.401 81.0382 241.551 80.7799 241.817 80.5632C242.101 80.3466 242.392 80.2549 242.692 80.2882C242.992 80.3216 243.242 80.4549 243.442 80.6882C243.776 81.0549 244.259 81.3716 244.892 81.6382C245.542 81.9049 246.251 82.0382 247.017 82.0382C248.101 82.0382 248.901 81.8632 249.417 81.5132C249.951 81.1466 250.226 80.6966 250.242 80.1632C250.242 79.6132 249.984 79.1549 249.467 78.7882C248.951 78.4049 248.042 78.1049 246.742 77.8882C245.059 77.5716 243.834 77.0799 243.067 76.4132C242.301 75.7466 241.917 74.9382 241.917 73.9882C241.917 73.1382 242.151 72.4382 242.617 71.8882C243.101 71.3216 243.726 70.9049 244.492 70.6382C245.276 70.3549 246.101 70.2132 246.967 70.2132C248.067 70.2132 249.034 70.3966 249.867 70.7632C250.701 71.1132 251.367 71.6049 251.867 72.2382C252.084 72.4882 252.176 72.7466 252.142 73.0132C252.126 73.2799 251.992 73.5049 251.742 73.6882C251.492 73.8382 251.201 73.8882 250.867 73.8382C250.551 73.7882 250.284 73.6466 250.067 73.4132C249.651 72.9799 249.184 72.6799 248.667 72.5132C248.167 72.3299 247.584 72.2382 246.917 72.2382C246.117 72.2382 245.451 72.3882 244.917 72.6882C244.401 72.9882 244.142 73.3966 244.142 73.9132C244.142 74.2466 244.226 74.5382 244.392 74.7882C244.576 75.0382 244.909 75.2716 245.392 75.4882C245.876 75.6882 246.567 75.8716 247.467 76.0382C248.717 76.2716 249.701 76.5799 250.417 76.9632C251.151 77.3466 251.676 77.7966 251.992 78.3132C252.309 78.8299 252.467 79.4132 252.467 80.0632C252.467 80.8299 252.251 81.5216 251.817 82.1382C251.401 82.7382 250.792 83.2132 249.992 83.5632C249.192 83.9132 248.226 84.0882 247.092 84.0882Z" fill="#EAE9B6"/>
<path d="M260.843 83.9882C259.993 83.9882 259.226 83.7799 258.543 83.3632C257.859 82.9299 257.326 82.3549 256.943 81.6382C256.559 80.9049 256.368 80.0716 256.368 79.1382V67.1132C256.368 66.7799 256.468 66.5049 256.668 66.2882C256.884 66.0716 257.159 65.9632 257.493 65.9632C257.826 65.9632 258.101 66.0716 258.318 66.2882C258.534 66.5049 258.643 66.7799 258.643 67.1132V79.1382C258.643 79.8882 258.851 80.5049 259.268 80.9882C259.684 81.4716 260.209 81.7132 260.843 81.7132H261.618C261.901 81.7132 262.134 81.8216 262.318 82.0382C262.518 82.2549 262.618 82.5299 262.618 82.8632C262.618 83.1966 262.493 83.4716 262.243 83.6882C262.009 83.8882 261.701 83.9882 261.318 83.9882H260.843ZM255.018 72.7882C254.718 72.7882 254.468 72.6966 254.268 72.5132C254.068 72.3299 253.968 72.0966 253.968 71.8132C253.968 71.5132 254.068 71.2716 254.268 71.0882C254.468 70.9049 254.718 70.8132 255.018 70.8132H261.043C261.343 70.8132 261.593 70.9049 261.793 71.0882C261.993 71.2716 262.093 71.5132 262.093 71.8132C262.093 72.0966 261.993 72.3299 261.793 72.5132C261.593 72.6966 261.343 72.7882 261.043 72.7882H255.018Z" fill="#EAE9B6"/>
</svg>
