<svg width="80" height="80" viewBox="0 0 80 80" fill="none" xmlns="http://www.w3.org/2000/svg">
<path d="M40 0L48.2822 9.09037L60 5.35898L62.6274 17.3726L74.641 20L70.9096 31.7178L80 40L70.9096 48.2822L74.641 60L62.6274 62.6274L60 74.641L48.2822 70.9096L40 80L31.7178 70.9096L20 74.641L17.3726 62.6274L5.35898 60L9.09037 48.2822L0 40L9.09037 31.7178L5.35898 20L17.3726 17.3726L20 5.35898L31.7178 9.09037L40 0Z" fill="#007553"/>
<path d="M39.9879 5.98789L47.2348 13.942L57.4879 10.677L59.7869 21.1889L70.2988 23.4879L67.0338 33.741L74.9879 40.9879L67.0338 48.2348L70.2988 58.4879L59.7869 60.7869L57.4879 71.2988L47.2348 68.0338L39.9879 75.9879L32.741 68.0338L22.4879 71.2988L20.1889 60.7869L9.677 58.4879L12.942 48.2348L4.98789 40.9879L12.942 33.741L9.677 23.4879L20.1889 21.1889L22.4879 10.677L32.741 13.942L39.9879 5.98789Z" fill="#007553"/>
<path d="M39.898 12.8976L45.6956 19.2608L53.8981 16.6488L55.7372 25.0584L64.1468 26.8976L61.5348 35.1L67.898 40.8976L61.5348 46.6951L64.1468 54.8976L55.7372 56.7368L53.8981 65.1463L45.6956 62.5343L39.898 68.8976L34.1005 62.5343L25.898 65.1463L24.0589 56.7368L15.6493 54.8976L18.2613 46.6951L11.898 40.8976L18.2613 35.1L15.6493 26.8976L24.0589 25.0584L25.898 16.6488L34.1005 19.2608L39.898 12.8976Z" fill="#007553"/>
<path d="M48.2126 48.6133C47.6472 48.6133 47.1717 48.4206 46.7862 48.035C46.4007 47.6495 46.2079 47.1741 46.2079 46.6086C46.2079 46.0689 46.4007 45.5935 46.7862 45.1822L49.215 42.7921H24.9661C24.4007 42.7921 23.9252 42.5993 23.5397 42.2138C23.1799 41.8283 23 41.3528 23 40.7874C23 40.222 23.1799 39.7593 23.5397 39.3995C23.9252 39.014 24.4007 38.8213 24.9661 38.8213H49.215L46.7862 36.3925C46.4007 35.9556 46.2079 35.493 46.2079 35.0047C46.2079 34.4136 46.4007 33.9381 46.7862 33.5783C47.1717 33.1928 47.6472 33 48.2126 33C48.778 33 49.2278 33.1928 49.5619 33.5783L55.4603 39.4381C55.8201 39.7979 56 40.2477 56 40.7874C56 41.3528 55.8201 41.8154 55.4603 42.1752L49.5619 48.035C49.2278 48.4206 48.778 48.6133 48.2126 48.6133Z" fill="#EAE9B6"/>
</svg>
